<?xml version="1.0" standalone="no"?><!DOCTYPE svg PUBLIC "-//W3C//DTD SVG 1.1//EN" "http://www.w3.org/Graphics/SVG/1.1/DTD/svg11.dtd"><svg t="1599102276789" class="icon" viewBox="0 0 1024 1024" version="1.1" xmlns="http://www.w3.org/2000/svg" p-id="1176" width="400" height="400" xmlns:xlink="http://www.w3.org/1999/xlink"><defs><style type="text/css"></style></defs><path d="M520.477 565.050q7.273 0 13.819 2.909t11.637 8.001q5.819 5.819 8.728 13.092 3.637 6.546 4.364 14.546 0 10.182-4.364 18.91-5.091 8.001-14.546 14.546 0 12.364 0 30.547 0 18.183 0 34.911 0 4.364-1.455 8.001-1.455 3.637-3.637 5.819-2.909 2.909-6.546 4.364-2.909 1.455-7.273 1.455-3.637 0-6.546-1.455-3.637-1.455-5.819-4.364-2.909-2.182-4.364-5.819-1.455-3.637-1.455-8.001 0-12.364 0-30.547 0-18.183 0-34.184-8.728-6.546-13.819-14.546-4.364-8.001-4.364-18.91 0-8.728 2.909-15.274 2.182-7.273 7.273-13.092 5.091-5.091 11.637-8.001 6.546-2.909 13.819-2.909zM767.766 419.586q12.364 0 23.274 4.364 10.182 4.364 18.91 12.364 8.728 8.728 13.092 19.638 4.364 10.182 4.364 23.274 0 21.82 0 48.73 0 26.184 0 56.004 0 54.549 0 114.917 0 59.64 0 114.189 0 11.637-4.364 22.547-4.364 10.182-13.092 18.91-9.455 9.455-19.638 13.819-10.182 4.364-22.547 4.364-60.368 0-142.555 0-82.187 0-168.738 0-47.276 0-93.824 0-46.549 0-89.46 0-11.637 0-22.547-4.364-10.182-4.364-18.91-13.819-9.455-8.728-13.819-18.91-4.364-10.91-4.364-22.547 0-21.82 0-48.73 0-26.184 0-56.004 0-13.819 0-27.638 0-42.185 0-87.278 0-59.64 0-114.189 0-11.637 4.364-22.547 4.364-10.182 13.819-18.91 8.728-9.455 18.91-13.819 10.91-4.364 22.547-4.364 2.182 0 6.546 0 3.637 0 5.819 0 0-10.91 0-26.911 0-16.001 0-29.82 0-32.002 8.001-61.095 8.001-29.82 24.002-56.731 15.274-26.911 37.093-48.003 21.092-21.82 48.003-37.093 27.638-16.001 56.731-24.002 29.82-8.001 61.095-8.001 32.002 0 61.095 8.001 29.093 8.001 56.004 24.002 27.638 16.001 48.73 37.093 21.82 21.092 37.821 48.003 8.728 15.274 14.546 31.275 6.546 15.274 10.91 32.002-10.182 0-30.547 0-7.273-25.456-20.365-48.003-13.092-22.547-33.457-42.185-29.82-30.547-66.186-45.094-36.366-15.274-78.551-15.274-42.185 0-78.551 15.274-35.639 14.546-66.186 45.094-29.82 29.82-45.094 66.186-15.274 36.366-15.274 78.551 0 10.91 0 28.365 0 17.456 0 28.365 46.549 0 114.917 0 69.095 0 137.464 0 37.093 0 71.277 0 34.184 0 62.55 0 6.546 0 12.364 0 5.819 0 11.637 0 10.182 0 29.82 0 2.182 0 6.546 0 3.637 0 5.819 0zM797.586 813.067q0-21.82 0-48.73 0-26.184 0-56.004 0-54.549 0-114.917 0-59.64 0-114.189 0-6.546-2.182-11.637-2.182-5.091-6.546-9.455-5.091-4.364-10.182-6.546-5.091-2.182-10.91-2.182-60.368 0-142.555 0-82.187 0-168.738 0-47.276 0-93.824 0-46.549 0-89.46 0-5.819 0-10.91 2.182-5.091 2.182-9.455 6.546-5.091 4.364-7.273 9.455-2.182 5.091-2.182 11.637 0 21.82 0 48.73 0 26.184 0 56.004 0 13.819 0 27.638 0 42.185 0 87.278 0 15.274 0 29.82 0 43.639 0 84.369 0 5.819 2.182 11.637 2.182 5.091 7.273 9.455 4.364 4.364 9.455 6.546 5.091 2.182 10.91 2.182 32.729 0 72.005 0 39.275 0 82.915 0 80.733 0 170.193 0 88.733 0 169.466 0 5.819 0 10.91-2.182 5.091-2.182 10.182-6.546 4.364-4.364 6.546-9.455 2.182-5.819 2.182-11.637z" p-id="1177"></path></svg>